<?xml version="1.0" encoding="UTF-8" standalone="no"?>
<!-- Created with Inkscape (http://www.inkscape.org/) -->

<svg
   width="186.66727mm"
   height="129.20178mm"
   viewBox="0 0 195.04438 135"
   version="1.1"
   id="svg1"
   xml:space="preserve"
   inkscape:version="1.4.3 (0d15f75, 2025-12-25)"
   sodipodi:docname="framework_overview.svg"
   xmlns:inkscape="http://www.inkscape.org/namespaces/inkscape"
   xmlns:sodipodi="http://sodipodi.sourceforge.net/DTD/sodipodi-0.dtd"
   xmlns:xlink="http://www.w3.org/1999/xlink"
   xmlns="http://www.w3.org/2000/svg"
   xmlns:svg="http://www.w3.org/2000/svg"><sodipodi:namedview
     id="namedview1"
     pagecolor="#ffffff"
     bordercolor="#000000"
     borderopacity="0.25"
     inkscape:showpageshadow="2"
     inkscape:pageopacity="0.0"
     inkscape:pagecheckerboard="0"
     inkscape:deskcolor="#d1d1d1"
     inkscape:document-units="mm"
     inkscape:zoom="1.051177"
     inkscape:cx="351.98639"
     inkscape:cy="151.25902"
     inkscape:window-width="1818"
     inkscape:window-height="959"
     inkscape:window-x="589"
     inkscape:window-y="427"
     inkscape:window-maximized="0"
     inkscape:current-layer="layer1" /><defs
     id="defs1"><linearGradient
       id="linearGradient22"
       inkscape:collect="always"><stop
         style="stop-color:#aaeeff;stop-opacity:1;"
         offset="0"
         id="stop22" /><stop
         style="stop-color:#aaeeff;stop-opacity:0;"
         offset="1"
         id="stop23" /></linearGradient><linearGradient
       id="linearGradient20"
       inkscape:collect="always"><stop
         style="stop-color:#80e5ff;stop-opacity:1;"
         offset="0"
         id="stop20" /><stop
         style="stop-color:#80e5ff;stop-opacity:0;"
         offset="1"
         id="stop21" /></linearGradient><linearGradient
       id="linearGradient8"
       inkscape:collect="always"><stop
         style="stop-color:#2ad4ff;stop-opacity:1;"
         offset="0"
         id="stop9" /><stop
         style="stop-color:#2ad4ff;stop-opacity:0;"
         offset="1"
         id="stop10" /></linearGradient><linearGradient
       id="linearGradient6"
       inkscape:collect="always"><stop
         style="stop-color:#2ad4ff;stop-opacity:1;"
         offset="0"
         id="stop7" /><stop
         style="stop-color:#2ad4ff;stop-opacity:0;"
         offset="1"
         id="stop8" /></linearGradient><linearGradient
       id="linearGradient1"
       inkscape:collect="always"><stop
         style="stop-color:#00aad4;stop-opacity:1;"
         offset="0"
         id="stop1" /><stop
         style="stop-color:#00aad4;stop-opacity:0;"
         offset="1"
         id="stop2" /></linearGradient><linearGradient
       inkscape:collect="always"
       xlink:href="#linearGradient1"
       id="linearGradient2"
       x1="37.1287"
       y1="116.41262"
       x2="37.130077"
       y2="136.48048"
       gradientUnits="userSpaceOnUse"
       gradientTransform="translate(-5.5991633,-27.973409)" /><linearGradient
       inkscape:collect="always"
       xlink:href="#linearGradient6"
       id="linearGradient4"
       x1="112.93466"
       y1="116.41262"
       x2="112.93603"
       y2="136.48048"
       gradientUnits="userSpaceOnUse"
       gradientTransform="translate(-5.5991633,-28.316204)" /><linearGradient
       inkscape:collect="always"
       xlink:href="#linearGradient8"
       id="linearGradient10"
       x1="112.93466"
       y1="116.41262"
       x2="112.93603"
       y2="136.48048"
       gradientUnits="userSpaceOnUse"
       gradientTransform="translate(-5.5991633,-28.144806)" /><linearGradient
       inkscape:collect="always"
       xlink:href="#linearGradient20"
       id="linearGradient21"
       x1="150.42935"
       y1="117.09821"
       x2="150.43073"
       y2="137.16608"
       gradientUnits="userSpaceOnUse"
       gradientTransform="translate(-5.5991633,-28.487602)" /><linearGradient
       inkscape:collect="always"
       xlink:href="#linearGradient22"
       id="linearGradient23"
       x1="187.92404"
       y1="117.09821"
       x2="187.9245"
       y2="137.16612"
       gradientUnits="userSpaceOnUse"
       gradientTransform="translate(-5.5991633,-28.316204)" /></defs><g
     inkscape:label="Layer 1"
     inkscape:groupmode="layer"
     id="layer1"
     transform="translate(-10.249488,0.91314856)"><rect
       style="fill:#d5f6ff;fill-opacity:1;stroke:#888888;stroke-width:0.505687;stroke-linecap:round;stroke-linejoin:round;stroke-opacity:1"
       id="rect24"
       width="190.00507"
       height="79.733833"
       x="12.71399"
       y="52.068062" /><rect
       style="fill:#d5ffe6;fill-opacity:1;stroke:#888888;stroke-width:0.510294;stroke-linecap:round;stroke-linejoin:round;stroke-opacity:1"
       id="rect23"
       width="190.00047"
       height="39.416924"
       x="12.716293"
       y="4.5525112" /><path
       d="m 51.465074,23.546229 c 0,-2.52734 -2.08774,-4.60269 -4.68384,-4.60269 h -1.912721 v -6.921859 9.99e-4 c 0,-0.147449 -0.0593,-0.28663 -0.16261,-0.389989 -0.10335,-0.10336 -0.24391,-0.15985 -0.39,-0.15985 H 21.109832 c -0.146069,0 -0.28663,0.0565 -0.39,0.15985 -0.10473,0.10335 -0.16261,0.24253 -0.163979,0.389989 -0.03139,9.39062 0.01617,13.39378 3.1e-5,23.127366 -2.45e-4,0.14745 0.0579,0.28801 0.16261,0.391371 0.10335,0.10473 0.24391,0.16261 0.391369,0.16261 h 6.91762 v 1.98988 c 0,2.527329 2.07394,4.68383 4.683831,4.68383 2.60861,0 4.68383,-2.156641 4.68383,-4.68383 l -0.001,-1.98988 h 6.92187 c 0.14608,0 0.28802,-0.0579 0.39138,-0.16261 0.10335,-0.103381 0.16261,-0.243941 0.16123,-0.391391 v -6.921076 h 1.91272 c 2.59623,0 4.68383,-2.08774 4.68383,-4.68383 z"
       id="path1-4"
       style="fill:#00d455;stroke:#888888;stroke-width:0.352778;stroke-opacity:1"
       sodipodi:nodetypes="csccccssccscscssccscccscc" /><path
       d="m 88.815662,23.752426 c 0,-2.52734 -2.087743,-4.60269 -4.683843,-4.60269 h -1.91272 v -6.92186 10e-4 c 0,-0.14745 -0.0593,-0.28663 -0.16261,-0.38999 -0.10335,-0.10336 -0.24391,-0.15985 -0.39,-0.15985 H 58.460418 c -0.146069,0 -0.28663,0.0565 -0.39,0.15985 -0.10473,0.10335 -0.16261,0.24253 -0.163979,0.38999 v 7.47042 c 0,0.14608 0.0579,0.28802 0.16261,0.39138 0.10335,0.10473 0.24391,0.16261 0.391369,0.16123 h 2.46119 c 2.013301,0 3.57999,1.57649 3.57999,3.49885 0,2.0133 -1.56683,3.58421 -3.57999,3.58421 h -2.46119 v 10e-4 c -0.146069,0 -0.28663,0.0565 -0.39,0.15985 -0.10473,0.10335 -0.16261,0.24391 -0.163979,0.38999 v 7.470426 c 0,0.14745 0.0579,0.28801 0.16261,0.39137 0.10335,0.10473 0.24391,0.16261 0.391369,0.16261 h 6.91762 v 1.98988 c 0,2.52733 2.07394,4.68383 4.683831,4.68383 2.60861,0 4.68383,-2.15664 4.68383,-4.68383 l -0.001,-1.98988 h 6.92187 c 0.14608,0 0.28802,-0.0579 0.39138,-0.16261 0.10335,-0.10338 0.16261,-0.24394 0.16123,-0.39139 v -6.921076 h 1.91272 c 2.59623,0 4.683833,-2.08774 4.683833,-4.68382 z"
       id="path1-5"
       style="fill:#00ff66;stroke:#888888;stroke-width:0.352778;stroke-opacity:1"
       sodipodi:nodetypes="csccccssccsccsssccccscscssccscccscc" /><path
       d="m 31.530913,79.630741 c -2.085967,0 -3.798879,-1.72314 -3.798879,-3.86585 v -1.57869 h -5.713047 8.26e-4 c -0.121708,0 -0.236582,-0.0489 -0.321891,-0.13421 -0.08531,-0.0853 -0.131934,-0.20131 -0.131934,-0.32189 V 54.576717 c 0,-0.12056 0.04663,-0.23658 0.131934,-0.3219 0.0853,-0.0864 0.200175,-0.13421 0.321891,-0.13533 h 6.165807 c 0.120568,0 0.23772,0.0478 0.323029,0.13421 0.08644,0.0853 0.134212,0.20132 0.133073,0.32302 v 2.03136 c 0,1.66171 1.301173,2.95479 2.887813,2.95479 1.661699,0 2.958266,-1.2932 2.958266,-2.95479 v -2.03136 h 8.25e-4 c 0,-0.12056 0.04663,-0.23658 0.131934,-0.3219 0.0853,-0.0864 0.201314,-0.13421 0.321882,-0.13533 h 6.165799 c 0.1217,0 0.237712,0.0478 0.323022,0.13421 0.08644,0.0853 0.134211,0.20132 0.134211,0.32302 0,0 0.0012,4.81251 0,19.153454 -9e-6,0.12056 -0.04779,0.23772 -0.134211,0.32303 -0.08533,0.0853 -0.201339,0.13421 -0.323038,0.13307 h -5.712387 v 1.57867 c 0,2.14284 -1.723139,3.86585 -3.865841,3.86585 z"
       id="path1-5-3"
       style="fill:#00aad4;stroke:#888888;stroke-width:0.291169;stroke-opacity:1"
       sodipodi:nodetypes="cscccsssccsccsssccccscsscccscc" /><path
       d="m 69.98631,79.836936 c -2.085967,0 -3.798879,-1.72314 -3.798879,-3.86585 v -1.57869 h -5.713047 8.26e-4 c -0.121708,0 -0.236582,-0.0489 -0.321891,-0.13421 -0.08531,-0.0853 -0.131934,-0.20131 -0.131934,-0.32189 V 54.782912 c 0,-0.12056 0.04663,-0.23658 0.131934,-0.3219 0.0853,-0.0864 0.200175,-0.13421 0.321891,-0.13533 h 6.165807 c 0.120568,0 0.23772,0.0478 0.323029,0.13421 0.08644,0.0853 0.134212,0.20132 0.133073,0.32302 v 2.03136 c 0,1.66171 1.301173,2.95479 2.887813,2.95479 1.661699,0 2.958266,-1.2932 2.958266,-2.95479 v -2.03136 h 8.25e-4 c 0,-0.12056 0.04663,-0.23658 0.131934,-0.3219 0.0853,-0.0864 0.201314,-0.13421 0.321882,-0.13533 h 6.165799 c 0.1217,0 0.237712,0.0478 0.323022,0.13421 0.08644,0.0853 0.134211,0.20132 0.134211,0.32302 0,0 0.0012,4.81251 0,19.153454 -9e-6,0.12056 -0.04779,0.23772 -0.134211,0.32303 -0.08533,0.0853 -0.201339,0.13421 -0.323038,0.13307 h -5.712387 v 1.57867 c 0,2.14284 -1.723139,3.86585 -3.865841,3.86585 z"
       id="path1-5-3-6"
       style="fill:#00ccff;stroke:#888888;stroke-width:0.291169;stroke-opacity:1"
       sodipodi:nodetypes="cscccsssccsccsssccccscsscccscc" /><path
       d="m 69.842085,108.16427 c -2.085967,0 -3.798879,-1.72314 -3.798879,-3.86585 v -1.57869 h -5.713047 8.26e-4 c -0.121708,0 -0.236582,-0.0489 -0.321891,-0.13421 -0.08531,-0.0853 -0.131934,-0.20131 -0.131934,-0.32189 V 83.110266 c 0,-0.12056 0.04663,-0.23658 0.131934,-0.3219 0.0853,-0.0864 0.200175,-0.13421 0.321891,-0.13533 h 6.165807 c 0.120568,0 0.23772,0.0478 0.323029,0.13421 0.08644,0.0853 0.134212,0.20132 0.133073,0.32302 v 2.03136 c 0,1.66171 1.301173,2.95479 2.887813,2.95479 1.661699,0 2.958266,-1.2932 2.958266,-2.95479 v -2.03136 h 8.25e-4 c 0,-0.12056 0.04663,-0.23658 0.131934,-0.3219 0.0853,-0.0864 0.201314,-0.13421 0.321882,-0.13533 h 6.165799 c 0.1217,0 0.237712,0.0478 0.323022,0.13421 0.08644,0.0853 0.134211,0.20132 0.134211,0.32302 0,0 0.0012,4.81251 0,19.153434 -9e-6,0.12056 -0.04779,0.23772 -0.134211,0.32303 -0.08533,0.0853 -0.201339,0.13421 -0.323038,0.13307 H 73.70701 v 1.57867 c 0,2.14284 -1.723139,3.86585 -3.865841,3.86585 z"
       id="path1-5-3-6-2"
       style="fill:url(#linearGradient4);fill-opacity:1;stroke:#888888;stroke-width:0.291169;stroke-opacity:1"
       sodipodi:nodetypes="cscccsssccsccsssccccscsscccscc" /><path
       d="m 126.1662,22.92764 c 0,-2.52734 -2.08775,-4.60269 -4.68385,-4.60269 h -1.91272 v -6.92186 10e-4 c 0,-0.14745 -0.0593,-0.28663 -0.16261,-0.38999 -0.10335,-0.10336 -0.24391,-0.15985 -0.39,-0.15985 H 95.810975 c -0.14607,0 -0.28663,0.0565 -0.39,0.15985 -0.10473,0.10335 -0.16261,0.24253 -0.16398,0.38999 v 7.47042 c 0,0.14608 0.0579,0.28802 0.16261,0.39138 0.10335,0.10473 0.24391,0.16261 0.39137,0.16123 h 2.46119 c 2.013305,0 3.579975,1.57649 3.579975,3.49885 0,2.0133 -1.56681,3.58421 -3.579975,3.58421 h -2.46119 v 0.001 c -0.14607,0 -0.28663,0.0565 -0.39,0.15985 -0.10473,0.10335 -0.16261,0.24391 -0.16398,0.38999 v 7.470432 c 0,0.14745 0.0579,0.28801 0.16261,0.39137 0.10335,0.10473 0.24391,0.16261 0.39137,0.16261 h 6.917605 v 1.98988 c 0,2.52733 2.07393,4.68383 4.68382,4.68383 2.60861,0 4.68383,-2.15664 4.68383,-4.68383 l -0.001,-1.98988 h 6.92187 c 0.14608,0 0.28802,-0.0579 0.39138,-0.16261 0.10335,-0.10338 0.16261,-0.24394 0.16123,-0.39139 V 27.61035 h 1.91272 c 2.59623,0 4.68384,-2.08774 4.68384,-4.68382 z"
       id="path1-5-2"
       style="fill:#2aff80;stroke:#888888;stroke-width:0.352778;stroke-opacity:1"
       sodipodi:nodetypes="csccccssccsccsssccccscscssccscccscc" /><path
       d="m 107.33684,79.012156 c -2.08596,0 -3.79886,-1.72314 -3.79886,-3.86585 v -1.57869 h -5.713035 8.3e-4 c -0.12171,0 -0.23659,-0.0489 -0.3219,-0.13421 -0.0853,-0.0853 -0.13193,-0.20131 -0.13193,-0.32189 V 53.958132 c 0,-0.12056 0.0466,-0.23658 0.13193,-0.3219 0.0853,-0.0864 0.20018,-0.13421 0.3219,-0.13533 h 6.165775 c 0.12057,0 0.23772,0.0478 0.32303,0.13421 0.0864,0.0853 0.13421,0.20132 0.13307,0.32302 v 2.03136 c 0,1.66171 1.30118,2.95479 2.88782,2.95479 1.66169,0 2.95826,-1.2932 2.95826,-2.95479 v -2.03136 h 8.3e-4 c 0,-0.12056 0.0466,-0.23658 0.13193,-0.3219 0.0853,-0.0864 0.20131,-0.13421 0.32188,-0.13533 h 6.1658 c 0.1217,0 0.23771,0.0478 0.32302,0.13421 0.0864,0.0853 0.13421,0.20132 0.13421,0.32302 0,0 0.001,4.81251 0,19.153454 0,0.12056 -0.0478,0.23772 -0.13421,0.32303 -0.0853,0.0853 -0.20134,0.13421 -0.32303,0.13307 h -5.71239 v 1.57867 c 0,2.14284 -1.72314,3.86585 -3.86584,3.86585 z"
       id="path1-5-3-6-4"
       style="fill:#2ad4ff;stroke:#888888;stroke-width:0.291169;stroke-opacity:1"
       sodipodi:nodetypes="cscccsssccsccsssccccscsscccscc" /><path
       d="m 107.33684,108.33567 c -2.08596,0 -3.79886,-1.72314 -3.79886,-3.86586 v -1.57868 h -5.713035 8.3e-4 c -0.12171,0 -0.23659,-0.0489 -0.3219,-0.13421 -0.0853,-0.0853 -0.13193,-0.20131 -0.13193,-0.32189 V 83.281664 c 0,-0.12056 0.0466,-0.23658 0.13193,-0.3219 0.0853,-0.0864 0.20018,-0.13421 0.3219,-0.13533 h 6.165775 c 0.12057,0 0.23772,0.0478 0.32303,0.13421 0.0864,0.0853 0.13421,0.20132 0.13307,0.32302 v 2.03136 c 0,1.66171 1.30118,2.95479 2.88782,2.95479 1.66169,0 2.95826,-1.2932 2.95826,-2.95479 v -2.03136 h 8.3e-4 c 0,-0.12056 0.0466,-0.23658 0.13193,-0.3219 0.0853,-0.0864 0.20131,-0.13421 0.32188,-0.13533 h 6.1658 c 0.1217,0 0.23771,0.0478 0.32302,0.13421 0.0864,0.0853 0.13421,0.20132 0.13421,0.32302 0,0 0.001,4.81251 0,19.153436 0,0.12056 -0.0478,0.23772 -0.13421,0.32303 -0.0853,0.0853 -0.20134,0.13421 -0.32303,0.13307 h -5.71239 v 1.57866 c 0,2.14285 -1.72314,3.86586 -3.86584,3.86586 z"
       id="path1-5-3-6-4-1"
       style="fill:url(#linearGradient10);fill-opacity:1;stroke:#888888;stroke-width:0.291169;stroke-opacity:1"
       sodipodi:nodetypes="cscccsssccsccsssccccscsscccscc" /><path
       d="m 163.51676,23.133836 c 0,-2.52734 -2.08775,-4.60269 -4.68385,-4.60269 h -1.91272 v -6.921859 10e-4 c 0,-0.14745 -0.0593,-0.28663 -0.16261,-0.38999 -0.10335,-0.10336 -0.24391,-0.15985 -0.39,-0.15985 h -23.20607 c -0.14607,0 -0.28663,0.0565 -0.39,0.15985 -0.10473,0.10335 -0.16261,0.24253 -0.16398,0.38999 v 7.470419 c 0,0.146081 0.0579,0.28802 0.16261,0.391381 0.10335,0.10473 0.24391,0.16261 0.39137,0.16123 h 2.46119 c 2.0133,0 3.57999,1.576489 3.57999,3.49885 0,2.0133 -1.56683,3.584209 -3.57999,3.584209 h -2.46119 v 0.001 c -0.14607,0 -0.28663,0.0565 -0.39,0.159849 -0.10473,0.10335 -0.16261,0.24391 -0.16398,0.389991 v 7.470431 c 0,0.14745 0.0579,0.28801 0.16261,0.391371 0.10335,0.10473 0.24391,0.16261 0.39137,0.16261 h 6.91762 v 1.98988 c 0,2.52733 2.07394,4.68383 4.68383,4.68383 2.60861,0 4.68383,-2.156641 4.68383,-4.68383 l -0.001,-1.98988 h 6.92187 c 0.14608,0 0.28802,-0.0579 0.39138,-0.16261 0.10335,-0.10338 0.16261,-0.243941 0.16123,-0.39139 v -6.921083 h 1.91272 c 2.59623,0 4.68384,-2.08774 4.68384,-4.68382 z"
       id="path1-5-2-0"
       style="fill:#80ffb3;stroke:#888888;stroke-width:0.352778;stroke-opacity:1"
       sodipodi:nodetypes="csccccssccsccsssccccscscssccscccscc" /><path
       d="m 144.6874,79.218351 c -2.08596,0 -3.79887,-1.72314 -3.79887,-3.86585 v -1.57869 h -5.71305 8.3e-4 c -0.12171,0 -0.23659,-0.0489 -0.3219,-0.13421 -0.0853,-0.0853 -0.13193,-0.20131 -0.13193,-0.32189 V 54.164327 c 0,-0.12056 0.0466,-0.23658 0.13193,-0.3219 0.0853,-0.0864 0.20018,-0.13421 0.3219,-0.13533 h 6.1658 c 0.12057,0 0.23772,0.0478 0.32303,0.13421 0.0864,0.0853 0.13421,0.20132 0.13307,0.32302 v 2.03136 c 0,1.66171 1.30118,2.95479 2.88782,2.95479 1.66169,0 2.95826,-1.2932 2.95826,-2.95479 v -2.03136 h 8.3e-4 c 0,-0.12056 0.0466,-0.23658 0.13193,-0.3219 0.0853,-0.0864 0.20131,-0.13421 0.32188,-0.13533 h 6.1658 c 0.1217,0 0.23771,0.0478 0.32302,0.13421 0.0864,0.0853 0.13421,0.20132 0.13421,0.32302 0,0 0.001,4.81251 0,19.153454 0,0.12056 -0.0478,0.23772 -0.13421,0.32303 -0.0853,0.0853 -0.20134,0.13421 -0.32303,0.13307 h -5.71239 v 1.57867 c 0,2.14284 -1.72314,3.86585 -3.86584,3.86585 z"
       id="path1-5-3-6-4-9"
       style="fill:#80e5ff;stroke:#888888;stroke-width:0.291169;stroke-opacity:1"
       sodipodi:nodetypes="cscccsssccsccsssccccscsscccscc" /><path
       d="m 144.83153,108.67846 c -2.08596,0 -3.79887,-1.72314 -3.79887,-3.86585 v -1.57869 h -5.71305 8.3e-4 c -0.12171,0 -0.23659,-0.0489 -0.3219,-0.1342 -0.0853,-0.0853 -0.13193,-0.20132 -0.13193,-0.32189 V 83.624459 c 0,-0.12056 0.0466,-0.23658 0.13193,-0.3219 0.0853,-0.0864 0.20018,-0.13421 0.3219,-0.13533 h 6.1658 c 0.12057,0 0.23772,0.0478 0.32303,0.13421 0.0864,0.0853 0.13421,0.20132 0.13307,0.32302 v 2.03136 c 0,1.66171 1.30118,2.95479 2.88782,2.95479 1.66169,0 2.95826,-1.2932 2.95826,-2.95479 v -2.03136 h 8.3e-4 c 0,-0.12056 0.0466,-0.23658 0.13193,-0.3219 0.0853,-0.0864 0.20131,-0.13421 0.32188,-0.13533 h 6.1658 c 0.1217,0 0.23771,0.0478 0.32302,0.13421 0.0864,0.0853 0.13421,0.20132 0.13421,0.32302 0,0 10e-4,4.81251 0,19.153441 0,0.12056 -0.0478,0.23772 -0.13421,0.32303 -0.0853,0.0853 -0.20134,0.13421 -0.32303,0.13307 h -5.71239 v 1.57866 c 0,2.14284 -1.72314,3.86585 -3.86584,3.86585 z"
       id="path1-5-3-6-4-9-2"
       style="fill:url(#linearGradient21);fill-opacity:1;stroke:#888888;stroke-width:0.291169;stroke-opacity:1"
       sodipodi:nodetypes="cscccsssccsccsssccccscsscccscc" /><path
       d="m 200.86732,23.340033 c 0,-2.52734 -2.08775,-4.60269 -4.68385,-4.60269 h -1.91272 v -6.92186 10e-4 c 0,-0.14745 -0.0593,-0.28663 -0.16261,-0.38999 -0.10335,-0.10336 -0.24391,-0.15985 -0.39,-0.15985 h -23.20607 c -0.14607,0 -0.28663,0.0565 -0.39,0.15985 -0.10473,0.10335 -0.16261,0.24253 -0.16398,0.38999 v 7.47042 c 0,0.14608 0.0579,0.28802 0.16261,0.39138 0.10335,0.10473 0.24391,0.16261 0.39137,0.16123 h 2.46119 c 2.0133,0 3.57999,1.57649 3.57999,3.49885 0,2.0133 -1.56683,3.58421 -3.57999,3.58421 h -2.46119 v 0.001 c -0.14607,0 -0.28663,0.0565 -0.39,0.15985 -0.10473,0.10335 -0.16261,0.24391 -0.16398,0.38999 v 7.470432 c 0,0.14745 0.0579,0.28801 0.16261,0.39137 0.10335,0.10473 0.24391,0.16261 0.39137,0.16261 h 6.91762 v 1.98988 c 0,2.52733 2.07394,4.68383 4.68383,4.68383 2.60861,0 4.68383,-2.15664 4.68383,-4.68383 l -0.001,-1.98988 h 6.92187 c 0.14608,0 0.28802,-0.0579 0.39138,-0.16261 0.10335,-0.10338 0.16261,-0.24394 0.16123,-0.39139 v -6.921082 h 1.91272 c 2.59623,0 4.68384,-2.08774 4.68384,-4.68382 z"
       id="path1-5-2-0-0"
       style="fill:#aaffcc;stroke:#888888;stroke-width:0.352778;stroke-opacity:1"
       sodipodi:nodetypes="csccccssccsccsssccccscscssccscccscc" /><path
       d="m 182.03796,79.424546 c -2.08596,0 -3.79887,-1.72314 -3.79887,-3.86585 v -1.57869 h -5.71305 8.3e-4 c -0.12171,0 -0.23659,-0.0489 -0.3219,-0.13421 -0.0853,-0.0853 -0.13193,-0.20131 -0.13193,-0.32189 V 54.370522 c 0,-0.12056 0.0466,-0.23658 0.13193,-0.3219 0.0853,-0.0864 0.20018,-0.13421 0.3219,-0.13533 h 6.1658 c 0.12057,0 0.23772,0.0478 0.32303,0.13421 0.0864,0.0853 0.13421,0.20132 0.13307,0.32302 v 2.03136 c 0,1.66171 1.30118,2.95479 2.88782,2.95479 1.66169,0 2.95826,-1.2932 2.95826,-2.95479 v -2.03136 h 8.3e-4 c 0,-0.12056 0.0466,-0.23658 0.13193,-0.3219 0.0853,-0.0864 0.20131,-0.13421 0.32188,-0.13533 h 6.1658 c 0.1217,0 0.23771,0.0478 0.32302,0.13421 0.0864,0.0853 0.13421,0.20132 0.13421,0.32302 0,0 0.001,4.81251 0,19.153454 0,0.12056 -0.0478,0.23772 -0.13421,0.32303 -0.0853,0.0853 -0.20134,0.13421 -0.32303,0.13307 h -5.71239 v 1.57867 c 0,2.14284 -1.72314,3.86585 -3.86584,3.86585 z"
       id="path1-5-3-6-4-9-1"
       style="fill:#aaeeff;stroke:#888888;stroke-width:0.291169;stroke-opacity:1"
       sodipodi:nodetypes="cscccsssccsccsssccccscsscccscc" /><path
       d="m 182.32622,108.84986 c -2.08596,0 -3.79887,-1.72314 -3.79887,-3.86585 v -1.57869 h -5.71305 8.3e-4 c -0.12171,0 -0.23659,-0.0489 -0.3219,-0.13421 -0.0853,-0.0853 -0.13193,-0.20131 -0.13193,-0.32189 V 83.795856 c 0,-0.12056 0.0466,-0.23658 0.13193,-0.3219 0.0853,-0.0864 0.20018,-0.13421 0.3219,-0.13533 h 6.1658 c 0.12057,0 0.23772,0.0478 0.32303,0.13421 0.0864,0.0853 0.13421,0.20132 0.13307,0.32302 v 2.03136 c 0,1.66171 1.30118,2.95479 2.88782,2.95479 1.66169,0 2.95826,-1.2932 2.95826,-2.95479 v -2.03136 h 8.3e-4 c 0,-0.12056 0.0466,-0.23658 0.13193,-0.3219 0.0853,-0.0864 0.20131,-0.13421 0.32188,-0.13533 h 6.1658 c 0.1217,0 0.23771,0.0478 0.32302,0.13421 0.0864,0.0853 0.13421,0.20132 0.13421,0.32302 0,0 0.001,4.81251 0,19.153434 0,0.12056 -0.0478,0.23772 -0.13421,0.32303 -0.0853,0.0853 -0.20134,0.13421 -0.32303,0.13307 h -5.71239 v 1.57867 c 0,2.14284 -1.72314,3.86585 -3.86584,3.86585 z"
       id="path1-5-3-6-4-9-1-4"
       style="fill:url(#linearGradient23);fill-opacity:1;stroke:#888888;stroke-width:0.291169;stroke-opacity:1"
       sodipodi:nodetypes="cscccsssccsccsssccccscsscccscc" /><text
       xml:space="preserve"
       style="font-size:3.52777px;font-family:Helvetica;-inkscape-font-specification:Helvetica;writing-mode:lr-tb;direction:ltr;fill:#000000;fill-opacity:1;stroke:none;stroke-width:0.499999;stroke-linecap:round;stroke-linejoin:round"
       x="20.578411"
       y="8.2862139"
       id="text1"><tspan
         sodipodi:role="line"
         id="tspan1"
         style="fill:#000000;fill-opacity:1;stroke:none;stroke-width:0.5"
         x="20.578411"
         y="8.2862139">Data generator</tspan></text><text
       xml:space="preserve"
       style="font-size:3.52777px;font-family:Helvetica;-inkscape-font-specification:Helvetica;writing-mode:lr-tb;direction:ltr;fill:#000000;fill-opacity:1;stroke:none;stroke-width:0.499999;stroke-linecap:round;stroke-linejoin:round"
       x="-87.371033"
       y="17.475859"
       id="text1-1"
       transform="rotate(-90)"><tspan
         sodipodi:role="line"
         id="tspan1-34"
         style="fill:#000000;fill-opacity:1;stroke:none;stroke-width:0.5"
         x="-87.371033"
         y="17.475859">Data Sources</tspan></text><text
       xml:space="preserve"
       style="font-size:3.52777px;font-family:Helvetica;-inkscape-font-specification:Helvetica;writing-mode:lr-tb;direction:ltr;fill:#000000;fill-opacity:1;stroke:none;stroke-width:0.499999;stroke-linecap:round;stroke-linejoin:round"
       x="-95.710136"
       y="56.522621"
       id="text1-1-8"
       transform="rotate(-90)"><tspan
         sodipodi:role="line"
         id="tspan1-34-5"
         style="fill:#000000;fill-opacity:1;stroke:none;stroke-width:0.5"
         x="-95.710136"
         y="56.522621">Processing algorithms</tspan></text><text
       xml:space="preserve"
       style="font-size:3.52777px;font-family:Helvetica;-inkscape-font-specification:Helvetica;writing-mode:lr-tb;direction:ltr;fill:#000000;fill-opacity:1;stroke:none;stroke-width:0.499999;stroke-linecap:round;stroke-linejoin:round"
       x="62.107197"
       y="8.4050684"
       id="text1-2"><tspan
         sodipodi:role="line"
         id="tspan1-3"
         style="fill:#000000;fill-opacity:1;stroke:none;stroke-width:0.5"
         x="62.107197"
         y="8.4050684">Processing</tspan></text><text
       xml:space="preserve"
       style="font-size:3.52777px;font-family:Helvetica;-inkscape-font-specification:Helvetica;writing-mode:lr-tb;direction:ltr;fill:#000000;fill-opacity:1;stroke:none;stroke-width:0.499999;stroke-linecap:round;stroke-linejoin:round"
       x="99.099396"
       y="8.5239248"
       id="text1-2-5"><tspan
         sodipodi:role="line"
         id="tspan1-3-7"
         style="fill:#000000;fill-opacity:1;stroke:none;stroke-width:0.5"
         x="99.099396"
         y="8.5239248">Evaluation</tspan></text><text
       xml:space="preserve"
       style="font-size:3.52777px;font-family:Helvetica;-inkscape-font-specification:Helvetica;writing-mode:lr-tb;direction:ltr;fill:#000000;fill-opacity:1;stroke:none;stroke-width:0.499999;stroke-linecap:round;stroke-linejoin:round"
       x="137.10278"
       y="8.1673584"
       id="text1-2-5-9"><tspan
         sodipodi:role="line"
         id="tspan1-3-7-7"
         style="fill:#000000;fill-opacity:1;stroke:none;stroke-width:0.5"
         x="137.10278"
         y="8.1673584">Reporting</tspan></text><g
       id="layer1-4"
       transform="translate(61.144269,-68.948624)"><text
         xml:space="preserve"
         style="font-size:3.52777px;font-family:Helvetica;-inkscape-font-specification:Helvetica;writing-mode:lr-tb;direction:ltr;fill:#000000;fill-opacity:1;stroke:none;stroke-width:0.499999;stroke-linecap:round;stroke-linejoin:round"
         x="111.12748"
         y="77.470825"
         id="text1-2-5-2"><tspan
           sodipodi:role="line"
           id="tspan1-3-7-3"
           style="fill:#000000;fill-opacity:1;stroke:none;stroke-width:0.5"
           x="111.12748"
           y="77.470825">Visualization</tspan></text></g><path
       d="m 31.530913,108.50706 c -2.085967,0 -3.798879,-1.72314 -3.798879,-3.86585 v -1.57868 h -5.713047 8.26e-4 c -0.121708,0 -0.236582,-0.0489 -0.321891,-0.13421 -0.08531,-0.0853 -0.131934,-0.20131 -0.131934,-0.32189 V 83.453061 c 0,-0.12056 0.04663,-0.23658 0.131934,-0.3219 0.0853,-0.0864 0.200175,-0.13421 0.321891,-0.13533 h 6.165807 c 0.120568,0 0.23772,0.0478 0.323029,0.13421 0.08644,0.0853 0.134212,0.20132 0.133073,0.32302 v 2.03136 c 0,1.66171 1.301173,2.95479 2.887813,2.95479 1.661699,0 2.958266,-1.2932 2.958266,-2.95479 v -2.03136 h 8.25e-4 c 0,-0.12056 0.04663,-0.23658 0.131934,-0.3219 0.0853,-0.0864 0.201314,-0.13421 0.321882,-0.13533 h 6.165799 c 0.1217,0 0.237712,0.0478 0.323022,0.13421 0.08644,0.0853 0.134211,0.20132 0.134211,0.32302 0,0 0.0012,4.81251 0,19.153439 -9e-6,0.12056 -0.04779,0.23772 -0.134211,0.32303 -0.08533,0.0853 -0.201339,0.13421 -0.323038,0.13307 h -5.712387 v 1.57866 c 0,2.14285 -1.723139,3.86586 -3.865841,3.86586 z"
       id="path1-5-3-0"
       style="fill:url(#linearGradient2);fill-opacity:1;stroke:#888888;stroke-width:0.291169;stroke-opacity:1"
       sodipodi:nodetypes="cscccsssccsccsssccccscsscccscc" /><circle
       style="fill:#666666;fill-opacity:1;stroke:none;stroke-width:0.499999;stroke-linecap:round;stroke-linejoin:round"
       id="path1"
       cx="31.565994"
       cy="115.25252"
       r="2" /><circle
       style="fill:#666666;fill-opacity:1;stroke:none;stroke-width:0.499999;stroke-linecap:round;stroke-linejoin:round"
       id="path1-1"
       cx="31.565994"
       cy="128.46503"
       r="2" /><circle
       style="fill:#666666;fill-opacity:1;stroke:none;stroke-width:0.499999;stroke-linecap:round;stroke-linejoin:round"
       id="path1-7"
       cx="31.565994"
       cy="121.85876"
       r="2" /><circle
       style="fill:#666666;fill-opacity:1;stroke:none;stroke-width:0.499999;stroke-linecap:round;stroke-linejoin:round"
       id="path1-3"
       cx="107.37192"
       cy="115.25252"
       r="2" /><circle
       style="fill:#666666;fill-opacity:1;stroke:none;stroke-width:0.499999;stroke-linecap:round;stroke-linejoin:round"
       id="path1-1-0"
       cx="107.37192"
       cy="128.46503"
       r="2" /><circle
       style="fill:#666666;fill-opacity:1;stroke:none;stroke-width:0.499999;stroke-linecap:round;stroke-linejoin:round"
       id="path1-7-1"
       cx="107.37192"
       cy="121.85876"
       r="2" /><circle
       style="fill:#666666;fill-opacity:1;stroke:none;stroke-width:0.499999;stroke-linecap:round;stroke-linejoin:round"
       id="path1-3-8"
       cx="144.86668"
       cy="115.25252"
       r="2" /><circle
       style="fill:#666666;fill-opacity:1;stroke:none;stroke-width:0.499999;stroke-linecap:round;stroke-linejoin:round"
       id="path1-1-0-1"
       cx="144.86668"
       cy="128.46503"
       r="2" /><circle
       style="fill:#666666;fill-opacity:1;stroke:none;stroke-width:0.499999;stroke-linecap:round;stroke-linejoin:round"
       id="path1-7-1-1"
       cx="144.86668"
       cy="121.85876"
       r="2" /><circle
       style="fill:#666666;fill-opacity:1;stroke:none;stroke-width:0.499999;stroke-linecap:round;stroke-linejoin:round"
       id="path1-3-3"
       cx="69.877182"
       cy="115.25252"
       r="2" /><circle
       style="fill:#666666;fill-opacity:1;stroke:none;stroke-width:0.499999;stroke-linecap:round;stroke-linejoin:round"
       id="path1-1-0-9"
       cx="69.877182"
       cy="128.46503"
       r="2" /><circle
       style="fill:#666666;fill-opacity:1;stroke:none;stroke-width:0.499999;stroke-linecap:round;stroke-linejoin:round"
       id="path1-7-1-6"
       cx="69.877182"
       cy="121.85876"
       r="2" /><circle
       style="fill:#666666;fill-opacity:1;stroke:none;stroke-width:0.499999;stroke-linecap:round;stroke-linejoin:round"
       id="path1-3-37"
       cx="182.07307"
       cy="115.25252"
       r="2" /><circle
       style="fill:#666666;fill-opacity:1;stroke:none;stroke-width:0.499999;stroke-linecap:round;stroke-linejoin:round"
       id="path1-1-0-0"
       cx="182.07307"
       cy="128.46503"
       r="2" /><circle
       style="fill:#666666;fill-opacity:1;stroke:none;stroke-width:0.499999;stroke-linecap:round;stroke-linejoin:round"
       id="path1-7-1-13"
       cx="182.07307"
       cy="121.85876"
       r="2" /><text
       xml:space="preserve"
       style="font-size:3.52777px;font-family:Helvetica;-inkscape-font-specification:Helvetica;writing-mode:lr-tb;direction:ltr;fill:#666666;fill-opacity:1;stroke:#888888;stroke-width:0.499999;stroke-linecap:round;stroke-linejoin:round;stroke-opacity:1"
       x="11.443296"
       y="106.96641"
       id="text23"><tspan
         sodipodi:role="line"
         id="tspan23"
         style="stroke-width:0.5"
         x="11.443296"
         y="106.96641" /></text><text
       xml:space="preserve"
       style="font-size:3.52777px;font-family:Helvetica;-inkscape-font-specification:Helvetica;writing-mode:lr-tb;direction:ltr;fill:#000000;fill-opacity:1;stroke:none;stroke-width:0.499999;stroke-linecap:round;stroke-linejoin:round"
       x="-91.103783"
       y="93.641129"
       id="text1-1-89"
       transform="rotate(-90)"><tspan
         sodipodi:role="line"
         id="tspan1-34-4"
         style="fill:#000000;fill-opacity:1;stroke:none;stroke-width:0.5"
         x="-91.103783"
         y="93.641129">Evaluation metrics</tspan></text><text
       xml:space="preserve"
       style="font-size:3.52777px;font-family:Helvetica;-inkscape-font-specification:Helvetica;writing-mode:lr-tb;direction:ltr;fill:#000000;fill-opacity:1;stroke:none;stroke-width:0.499999;stroke-linecap:round;stroke-linejoin:round"
       x="-86.523811"
       y="131.48312"
       id="text1-1-9"
       transform="rotate(-90)"><tspan
         sodipodi:role="line"
         id="tspan1-34-7"
         style="fill:#000000;fill-opacity:1;stroke:none;stroke-width:0.5"
         x="-86.523811"
         y="131.48312">Serializers</tspan></text><text
       xml:space="preserve"
       style="font-size:3.52777px;font-family:Helvetica;-inkscape-font-specification:Helvetica;writing-mode:lr-tb;direction:ltr;fill:#000000;fill-opacity:1;stroke:none;stroke-width:0.499999;stroke-linecap:round;stroke-linejoin:round"
       x="-84.337914"
       y="168.56172"
       id="text1-1-7"
       transform="rotate(-90)"><tspan
         sodipodi:role="line"
         id="tspan1-34-45"
         style="fill:#000000;fill-opacity:1;stroke:none;stroke-width:0.5"
         x="-84.337914"
         y="168.56172">Plotters</tspan></text><text
       xml:space="preserve"
       style="font-size:3.60041px;font-family:Helvetica;-inkscape-font-specification:Helvetica;writing-mode:lr-tb;direction:ltr;fill:#d5f6ff;fill-opacity:1;stroke:#888888;stroke-width:0.510294;stroke-linecap:round;stroke-linejoin:round;stroke-opacity:1"
       x="13.271921"
       y="2.7752004"
       id="text24"><tspan
         sodipodi:role="line"
         id="tspan24"
         style="fill:#000000;stroke:none;stroke-width:0.510295"
         x="13.271921"
         y="2.7752004">Framework steps</tspan></text><text
       xml:space="preserve"
       style="font-size:3.60041px;font-family:Helvetica;-inkscape-font-specification:Helvetica;writing-mode:lr-tb;direction:ltr;fill:#d5f6ff;fill-opacity:1;stroke:#888888;stroke-width:0.510294;stroke-linecap:round;stroke-linejoin:round;stroke-opacity:1"
       x="13.461844"
       y="50.550358"
       id="text24-4"><tspan
         sodipodi:role="line"
         id="tspan24-8"
         style="fill:#000000;stroke:none;stroke-width:0.510295"
         x="13.461844"
         y="50.550358">Framework modules</tspan></text></g></svg>
